<svg width="206" height="20" viewBox="0 0 206 20" fill="none" xmlns="http://www.w3.org/2000/svg">
<path d="M10.3627 4.09192V19.8347H5.58996V4.09192H0V0.00244141H15.9474V4.09192H10.3627Z" fill="#161720"/>
<path d="M18.1367 19.8342V0.00195312H31.432V4.0355H22.7369V7.78944H30.9476V11.6342H22.7369V15.7517H31.9252V19.8412L18.1367 19.8342Z" fill="#161720"/>
<path d="M53.0142 19.8342L53.1257 5.80062H53.0421L47.9017 19.8342H44.5508L39.5516 5.80062H39.4679L39.5794 19.8342H35.082V0.00195312H41.8778L46.3805 12.7195H46.492L50.7977 0.00195312H57.7068V19.8342H53.0142Z" fill="#161720"/>
<path d="M76.7536 6.10779C76.7536 7.26589 76.5399 8.24165 76.1124 9.03508C75.7025 9.80976 75.1074 10.4703 74.3803 10.9575C73.6127 11.4608 72.761 11.8214 71.8659 12.0218C70.8947 12.2481 69.9007 12.3607 68.9036 12.3573H66.5321V19.8372H61.7559V0.00153502H69.0186C70.0375 -0.00540066 71.054 0.102466 72.0489 0.323103C72.9258 0.511304 73.7598 0.862833 74.5075 1.35945C75.2082 1.83525 75.7776 2.48088 76.1629 3.23642C76.5567 4.01237 76.7536 4.96949 76.7536 6.10779ZM71.9774 6.13575C71.9942 5.73432 71.8976 5.33629 71.6986 4.98755C71.5142 4.69087 71.2536 4.44941 70.9441 4.2885C70.608 4.11456 70.2441 4.00099 69.869 3.95295C69.4573 3.89624 69.0421 3.86821 68.6266 3.86906H66.5356V8.54575H68.5464C68.977 8.54743 69.4068 8.50999 69.8306 8.43389C70.218 8.36808 70.5912 8.23564 70.9336 8.04243C71.2492 7.86516 71.5138 7.60936 71.7021 7.29968C71.9002 6.9449 71.9967 6.54208 71.9809 6.13575H71.9774Z" fill="#161720"/>
<path d="M108.68 19.8342L107.145 15.9404H99.4914L98.0382 19.8342H92.8438L101.14 0.00195312H105.775L113.987 19.8342H108.68ZM103.374 5.3008L100.859 12.1166H105.831L103.374 5.3008Z" fill="#161720"/>
<path d="M122.421 4.09143V19.8342H117.645V4.09143H112.057V0.00195312H128.006V4.09143H122.421Z" fill="#161720"/>
<path d="M130.178 19.8342V0.00195312H143.473V4.0355H134.787V7.78944H142.997V11.6342H134.787V15.7517H143.975V19.8412L130.178 19.8342Z" fill="#161720"/>
<path d="M150.241 18.4901C150.241 18.8805 150.091 19.256 149.823 19.5387C149.681 19.6847 149.512 19.8007 149.325 19.8799C149.138 19.9591 148.937 19.9999 148.734 19.9999C148.531 19.9999 148.33 19.9591 148.143 19.8799C147.956 19.8007 147.786 19.6847 147.645 19.5387C147.376 19.256 147.227 18.8805 147.227 18.4901C147.227 18.0997 147.376 17.7242 147.645 17.4415C147.786 17.2951 147.955 17.1787 148.142 17.0992C148.33 17.0197 148.531 16.9788 148.734 16.9788C148.937 16.9788 149.138 17.0197 149.325 17.0992C149.512 17.1787 149.682 17.2951 149.823 17.4415C150.092 17.724 150.241 18.0996 150.241 18.4901Z" fill="#161720"/>
<path d="M169.011 16.8929H169.067V0.00195312H171.078V19.8342H168.563L157.063 2.77371H157.007V19.8342H154.996V0.00195312H157.511L169.011 16.8929Z" fill="#161720"/>
<path d="M178.337 18.0411H188.923V19.8342H176.326V0.00195312H188.588V1.79328H178.337V8.60908H187.921V10.4004H178.337V18.0411Z" fill="#161720"/>
<path d="M199.201 19.8342H197.19V1.79328H190.568V0.00195312H205.819V1.79328H199.197L199.201 19.8342Z" fill="#161720"/>
<path d="M84.433 15.6589V0H79.6289V19.834H89.8644L91.6104 15.6589H84.433Z" fill="#161720"/>
</svg>
