<svg width="80" height="80" viewBox="0 0 80 80" fill="none" xmlns="http://www.w3.org/2000/svg">
<rect width="80" height="80" rx="40" fill="#161720"/>
<g clip-path="url(#clip0_211_7521)">
<path d="M50.9961 28.9723C50.8274 28.8036 50.6059 28.7192 50.3843 28.7192C50.1628 28.7192 49.9412 28.8035 49.7725 28.9722C49.4352 29.3095 49.4352 29.8585 49.7725 30.1957C50.11 30.5332 50.6588 30.5331 50.996 30.1957C51.1594 30.0323 51.2494 29.815 51.2494 29.5839C51.2495 29.353 51.1595 29.1357 50.9961 28.9723Z" fill="white"/>
<path d="M36.6723 41.6696C36.4381 41.4354 36.217 41.322 36.0085 41.3289C35.8002 41.336 35.5929 41.4424 35.3869 41.6485L34.6914 42.344L35.998 43.6505L36.6934 42.9551C36.8994 42.7491 37.0059 42.5419 37.013 42.3334C37.0201 42.1252 36.9066 41.9039 36.6723 41.6696Z" fill="white"/>
<path d="M59.9419 35.4409L58.0361 24.8999C57.7673 23.4127 56.5874 22.2327 55.1002 21.9638L44.5591 20.0581C43.3843 19.8457 42.1796 20.2229 41.3358 21.0667L21.0668 41.3358C20.3789 42.0237 20 42.9383 20 43.9111C20 44.8839 20.3788 45.7986 21.0668 46.4864L33.5136 58.9332C34.2015 59.6212 35.1161 60 36.089 60C37.0618 60 37.9764 59.6212 38.6643 58.9332L58.9333 38.6642C59.7771 37.8203 60.1541 36.6153 59.9419 35.4409ZM35.0041 50.2146C34.9549 50.381 34.8554 50.5389 34.7057 50.6887C34.5557 50.8387 34.3978 50.9382 34.2315 50.9872C34.0653 51.0365 33.9285 51.0071 33.8206 50.8993L29.3601 46.4389C29.2525 46.3312 29.2161 46.2014 29.2512 46.0492C29.2862 45.897 29.3694 45.7554 29.5006 45.6241L31.9381 43.1866C32.0458 43.079 32.1747 43.0438 32.3244 43.0811C32.4744 43.1186 32.6123 43.2006 32.7388 43.3272C32.8746 43.463 32.9601 43.607 32.9953 43.7591C33.0303 43.9115 32.9963 44.0389 32.8933 44.1419L31.074 45.9613L32.2611 47.1485L33.3218 46.0878C33.4247 45.9849 33.5477 45.9461 33.6906 45.9718C33.8334 45.9976 33.9634 46.0692 34.0804 46.1861C34.1881 46.2939 34.256 46.418 34.2841 46.5584C34.3121 46.6989 34.2724 46.8231 34.1647 46.9307L33.104 47.9914L34.9163 49.8037C35.0242 49.9115 35.0533 50.0485 35.0041 50.2146ZM40.9749 44.1385C40.9492 44.4078 40.8543 44.6244 40.6904 44.7883C40.5264 44.9523 40.3415 45.0014 40.1354 44.9358L37.3047 44.0297L36.8411 44.4933L38.5339 46.1861C38.6417 46.2939 38.6708 46.431 38.6217 46.5971C38.5724 46.7636 38.4729 46.9215 38.3232 47.0713C38.1732 47.2212 38.0153 47.3207 37.8491 47.3697C37.6828 47.4191 37.546 47.3897 37.4382 47.2819L32.9707 42.8144C32.8817 42.7254 32.8361 42.6167 32.8337 42.4877C32.8315 42.359 32.8795 42.2454 32.9779 42.1471L34.4319 40.693C35.5839 39.5411 36.6611 39.4661 37.6632 40.4682C38.3936 41.1988 38.5856 41.9575 38.2391 42.744L40.6484 43.4396C40.7047 43.449 40.7585 43.4794 40.81 43.5309C40.9457 43.6668 41.0007 43.8693 40.9749 44.1385ZM44.8559 40.5386L42.3553 43.0392C42.2241 43.1704 42.0825 43.2534 41.9302 43.2886C41.778 43.3237 41.6482 43.2874 41.5404 43.1796L37.08 38.7191C36.9723 38.6115 36.9359 38.4816 36.9711 38.3294C37.0061 38.1772 37.0893 38.0356 37.2204 37.9044L39.7211 35.4037C39.8288 35.2961 39.9577 35.2609 40.1074 35.2983C40.2574 35.3358 40.3954 35.4177 40.5218 35.5443C40.6576 35.6801 40.7432 35.8241 40.7783 35.9762C40.8133 36.1286 40.7793 36.2561 40.6764 36.359L38.7938 38.2416L39.981 39.4288L41.0347 38.3751C41.1376 38.2722 41.2607 38.2334 41.4035 38.2591C41.5463 38.2849 41.6764 38.3564 41.7933 38.4733C41.9011 38.5811 41.9689 38.7052 41.997 38.8457C42.025 38.9861 41.9853 39.1104 41.8776 39.218L40.8239 40.2718L42.0179 41.4658L43.9005 39.5833C44.0034 39.4804 44.1311 39.4464 44.2833 39.4814C44.4356 39.5166 44.5794 39.602 44.7153 39.7379C44.8416 39.8642 44.9237 40.0024 44.9612 40.1522C44.9988 40.3022 44.9635 40.4308 44.8559 40.5386ZM48.6419 36.7525L46.1411 39.2533C46.01 39.3844 45.8683 39.4676 45.716 39.5026C45.5639 39.5378 45.4341 39.5015 45.3263 39.3936L40.8658 34.9332C40.7582 34.8255 40.7218 34.6957 40.7569 34.5435C40.792 34.3912 40.8751 34.2497 41.0063 34.1184L43.5069 31.6178C43.6146 31.5101 43.7435 31.475 43.8932 31.5123C44.0431 31.5499 44.1811 31.6318 44.3076 31.7584C44.4434 31.8942 44.5289 32.0382 44.5641 32.1903C44.5991 32.3426 44.5651 32.4701 44.4621 32.5731L42.5796 34.4557L43.7668 35.6429L44.8205 34.5891C44.9234 34.4862 45.0464 34.4475 45.1892 34.4732C45.3321 34.499 45.4621 34.5705 45.579 34.6875C45.6867 34.7952 45.7546 34.9194 45.7828 35.0597C45.8107 35.2002 45.771 35.3244 45.6634 35.4321L44.6096 36.4858L45.8037 37.6799L47.6863 35.7973C47.7892 35.6944 47.9169 35.6605 48.0691 35.6955C48.2214 35.7307 48.3653 35.8161 48.5011 35.9519C48.6274 36.0783 48.7095 36.2165 48.7471 36.3663C48.7849 36.5161 48.7496 36.6448 48.6419 36.7525ZM52.6539 31.8547C52.028 32.4806 51.2057 32.7936 50.3835 32.7936C49.5612 32.7936 48.739 32.4806 48.1131 31.8546C46.861 30.6026 46.861 28.5656 48.1131 27.3137C49.3649 26.0617 51.4021 26.0616 52.6539 27.3137C53.2605 27.9202 53.5944 28.7265 53.5944 29.5841C53.5944 30.4418 53.2604 31.2481 52.6539 31.8547Z" fill="white"/>
</g>
<defs>
<clipPath id="clip0_211_7521">
<rect width="40" height="40" fill="white" transform="translate(20 20)"/>
</clipPath>
</defs>
</svg>
