<svg width="16" height="16" viewBox="0 0 16 16" fill="none" xmlns="http://www.w3.org/2000/svg">
<path d="M12 9.15385V7.80769C12 7.34866 11.8104 6.90844 11.4728 6.58385C11.1352 6.25927 10.6774 6.07692 10.2 6.07692H9.4C9.24087 6.07692 9.08826 6.01614 8.97574 5.90795C8.86321 5.79975 8.8 5.65301 8.8 5.5V4.73077C8.8 4.27174 8.61036 3.83151 8.27279 3.50693C7.93523 3.18235 7.47739 3 7 3H6M7.2 3H4.6C4.2688 3 4 3.25846 4 3.57692V12.4231C4 12.7415 4.2688 13 4.6 13H11.4C11.7312 13 12 12.7415 12 12.4231V7.61538C12 6.39131 11.4943 5.21737 10.5941 4.35181C9.69394 3.48626 8.47304 3 7.2 3Z" stroke="black" stroke-linecap="round" stroke-linejoin="round"/>
</svg>
